<svg xmlns="http://www.w3.org/2000/svg" xml:space="preserve" width="800" height="800" viewBox="0 0 512 512"><circle cx="255.722" cy="256" r="255.445" style="fill:#40a459"/><path d="M255.722.555a261 261 0 0 0-7.286.11q-2.765.075-5.514.209c-.474.023-.945.056-1.418.081a262 262 0 0 0-4.174.264c-.699.05-1.397.098-2.094.153a256 256 0 0 0-4.82.428c-.829.082-1.654.173-2.479.262q-1.486.162-2.968.34c-.856.103-1.714.202-2.567.313 125.334 16.327 222.126 123.498 222.126 253.282S347.737 492.953 222.403 509.28c.854.111 1.71.211 2.567.313q1.481.178 2.968.34c.826.09 1.652.181 2.479.262q2.404.236 4.82.428c.696.056 1.395.104 2.094.153q2.082.15 4.174.264c.473.027.945.058 1.418.081a258 258 0 0 0 6.988.246c1.932.043 3.868.073 5.812.073 141.079 0 255.445-114.367 255.445-255.445S396.801.555 255.722.555" style="fill:#378b4e"/><path d="m222.403 233.787 106.563-61.152s116.569 24.829 143.473-24.263l8.485-15.483 7.379 16.04c15.321 33.304 23.42 70.329 23.42 107.071 0 84.691-41.95 163.833-112.217 211.703l-7.25 4.94z" style="fill:#898790"/><path d="M511.166 256c0-44.143-11.198-85.671-30.908-121.898l-7.82 14.269c-9.45 17.245-21.888 34.878-34.284 50.741A256.2 256.2 0 0 1 444.528 256c0 71.337-29.248 135.834-76.4 182.176l23.852 34.666C463.639 427.598 511.166 347.012 511.166 256" style="fill:#7a797f"/><path d="M255.722 512c-87.455 0-168.01-44.081-215.484-117.917l-4.527-7.04 142.267-119.937 163.74 230.122-10.434 3.385C306.874 508.169 281.452 512 255.722 512" style="fill:#3d9ae3"/><path d="m342.752 496.827-17.317-24.795c-30.569 19.333-65.625 32.915-103.137 37.801 10.906 1.42 22.13 1.612 33.424 1.612 30.448 0 59.952-4.845 87.03-14.618" style="fill:#1d81ce"/><path d="m177.978 267.106 44.425-33.319 170.805 238.278-8.302 4.872a256 256 0 0 1-36.69 17.766l-6.499 2.527z" style="fill:#fff"/><path d="M341.718 497.229a254.5 254.5 0 0 0 51.49-25.164l-24.615-34.338A256.6 256.6 0 0 1 324.3 472.75z" style="fill:#e0e0e3"/><path d="M31.37 379.188a255.6 255.6 0 0 1-17.696-39.813l-2.112-8.059 299.691-208.592 44.425 33.319L35.712 387.042z" style="fill:#ffce00"/><path d="M382.579 250.216c-15.713-16.41-94.094-100.753-94.094-149.704C288.485 45.089 333.575 0 388.997 0s100.512 45.089 100.512 100.512c0 48.918-78.382 133.287-94.095 149.704-3.497 3.654-9.337 3.655-12.835 0" style="fill:#cd2900"/><path d="M388.997 134.386c-24.803 0-44.98-20.178-44.98-44.98s20.178-44.98 44.98-44.98c24.803 0 44.98 20.178 44.98 44.98s-20.177 44.98-44.98 44.98" style="fill:#891d00"/><path d="M144.659 186.586c29.088 0 52.755-23.666 52.755-52.755a8.33 8.33 0 0 0-8.33-8.33h-33.319a8.33 8.33 0 0 0 0 16.66h24.018c-3.769 15.901-18.088 27.766-35.125 27.766-19.902 0-36.095-16.193-36.095-36.095s16.193-36.095 36.095-36.095a36.05 36.05 0 0 1 23.865 9.015 8.33 8.33 0 1 0 11.021-12.493 52.7 52.7 0 0 0-34.886-13.181c-29.088 0-52.755 23.666-52.755 52.755s23.667 52.753 52.756 52.753" style="fill:#fff"/></svg>