<svg xmlns="http://www.w3.org/2000/svg" xml:space="preserve" width="800" height="800" viewBox="0 0 504.4 504.4"><path d="M64.6 193.2c0 183.6 172.8 295.6 187.6 304.8 14.8-9.2 187.6-121.2 187.6-304.8 0-103.6-84.4-187.6-187.6-187.6S64.6 89.6 64.6 193.2m248-83.2c40 0 72.8 32.4 72.8 72.8 0 87.6-126.8 150.4-132.4 153.2h-1.6c-5.6-2.8-132.4-65.6-132.4-153.2 0-40 32.4-72.8 72.8-72.8 24.8 0 47.2 12 60.4 32.8 13.6-20.8 36-32.8 60.4-32.8" style="fill:#e36d60"/><path d="M250.6 147.2c-12.4-20.8-34.4-33.6-58.8-33.6-38 0-68.8 30.8-68.8 68.8C123 264 241 326 252.2 331.6c11.2-5.6 129.2-67.6 129.2-149.2 0-38-30.8-68.8-68.8-68.8-24.4 0-46.4 12.4-58.8 33.6-.8 1.2-2.4 1.2-3.2 0M275 160c8-13.6 22-21.6 37.6-21.6 11.6 0 22.4 4.4 30.8 12.4 0 0 .4.4.4.8l12.8 30v.8c0 58.8-86.4 110.8-103.6 120.8-.4 0-.8.4-.8.4s-.8 0-.8-.4c-17.2-10-103.6-62-103.6-120.8 0-24.4 19.6-44 44-44 15.6 0 29.6 8 37.6 21.6 4.8 8 13.6 12.8 22.8 12.8s18-4.8 22.8-12.8" style="fill:#bc3f2c"/><path d="M252.2 504.4c-.8 0-1.6 0-2-.4-2-1.2-191.6-116.4-191.6-310.4C58.6 86.8 145.4 0 252.2 0s193.6 86.8 193.6 193.6c0 194-189.6 309.6-191.6 310.4-.4.4-1.2.4-2 .4m0-496.8C149.8 7.6 66.6 90.8 66.6 193.2c0 178.8 165.2 289.6 185.6 302.4 20.4-12.8 185.6-123.6 185.6-302.4 0-102.4-83.2-185.6-185.6-185.6"/><path d="M252.2 338c-.4 0-1.2 0-1.6-.4-5.6-2.8-133.6-66-133.6-154.8 0-41.2 33.6-74.8 74.8-74.8 24.4 0 46.4 11.6 60.4 31.2 14-19.6 36.4-31.2 60.4-31.2 41.2 0 74.8 33.6 74.8 74.8 0 88.8-128 152.4-133.6 154.8-.4 0-1.2.4-1.6.4m-60.4-222c-36.8 0-66.8 30-66.8 66.8 0 78.4 111.6 138.8 127.2 146.8 15.6-8 127.2-68.4 127.2-146.8 0-36.8-30-66.8-66.8-66.8-23.6 0-44.8 12-57.2 32.4-1.6 2.4-5.6 2.4-6.8 0-12-20.4-33.2-32.4-56.8-32.4"/><path d="M252.2 305.6c-.8 0-1.2 0-2-.4-17.6-10-104.8-62.8-104.8-122.4 0-25.2 20.8-46 46-46 16.4 0 31.2 8.4 39.6 22.4 4.4 7.2 12.4 12 21.2 12 8.4 0 16.8-4.4 21.2-12 8.4-14 23.2-22.4 39.2-22.4 12 0 23.6 4.8 32.4 13.2 1.6 1.6 1.6 4 0 5.6s-4 1.6-5.6 0c-7.2-6.8-16.4-10.8-26.4-10.8-13.6 0-25.6 6.8-32.4 18.4-6 9.6-16.4 16-28 16-11.2 0-22-6-28-16-6.8-11.6-19.2-18.4-32.4-18.4-20.8 0-38 17.2-38 38 0 42.4 52.8 87.6 98.4 114.4 20.4-12 98.4-60.4 98.4-114.4 0-2.4 1.6-4 4-4s4 1.6 4 4c0 60-87.2 112.4-104.4 122.4-1.2 0-1.6.4-2.4.4"/></svg>